<?xml version="1.0" encoding="utf-8"?>
<!-- Generator: Adobe Illustrator 24.1.3, SVG Export Plug-In . SVG Version: 6.00 Build 0)  -->
<svg version="1.1" id="Layer_1" xmlns="http://www.w3.org/2000/svg" xmlns:xlink="http://www.w3.org/1999/xlink" x="0px" y="0px"
	 viewBox="0 0 300 54" style="enable-background:new 0 0 300 54;" xml:space="preserve">
<style type="text/css">
	.st0{fill:#FFFFFF;}
	.st1{fill:#FD2D01;}
	.st2{fill:#FFD7D7;}
</style>
<rect y="-122" class="st0" width="300" height="300"/>
<g id="b5a93e15-ef7c-9d7a-680b-cdb17474f15f" transform="matrix(2.2,0,0,2.2,90.86749374866484,130.23299922943116)">
	<path class="st1" d="M5.4-42.8L5.4-42.8c-1.5,0-2.7-0.5-3.7-1.5l0,0l0,0c-1-1-1.5-2.2-1.5-3.7l0,0l0,0c0-1.4,0.5-2.7,1.5-3.6l0,0
		l0,0c1-1,2.2-1.5,3.7-1.5l0,0l0,0c1.5,0,2.7,0.5,3.8,1.4l0,0l-1.4,1.5l0,0C7.1-50.7,6.3-51,5.4-51l0,0l0,0c-0.9,0-1.7,0.3-2.2,0.9
		l0,0l0,0c-0.6,0.6-0.8,1.3-0.8,2.2l0,0l0,0c0,1,0.3,1.7,0.9,2.3l0,0l0,0c0.6,0.6,1.3,0.8,2.2,0.8l0,0l0,0c0.7,0,1.3-0.1,1.7-0.4
		l0,0V-47l-1.4,0v-1.9h3.4v4.8l0,0C8.1-43.2,6.9-42.8,5.4-42.8L5.4-42.8z M12.8-49.6v0.8l0,0c0.5-0.5,1.1-0.8,1.8-0.8l0,0l0,0
		c0.2,0,0.4,0,0.6,0l0,0L15-47.7l0,0C14.7-47.9,14.4-48,14-48l0,0l0,0c-0.5,0-0.9,0.4-1.2,1l0,0v4.2h-1.9v-6.6L12.8-49.6z
		 M19.6-42.7L19.6-42.7c-1,0-1.8-0.3-2.5-1l0,0l0,0c-0.7-0.7-1-1.5-1-2.5l0,0l0,0c0-1,0.3-1.8,1-2.5l0,0l0,0c0.7-0.7,1.5-1,2.5-1
		l0,0l0,0c1,0,1.8,0.3,2.5,1l0,0l0,0c0.7,0.7,1,1.5,1,2.5l0,0l0,0c0,1-0.3,1.8-1,2.5l0,0l0,0C21.4-43,20.6-42.7,19.6-42.7L19.6-42.7
		z M19.6-44.4L19.6-44.4L19.6-44.4c0.5,0,0.9-0.2,1.3-0.5l0,0l0,0c0.3-0.3,0.5-0.8,0.5-1.3l0,0l0,0c0-0.5-0.2-1-0.5-1.3l0,0l0,0
		c-0.3-0.4-0.8-0.5-1.3-0.5l0,0l0,0c-0.5,0-0.9,0.2-1.3,0.5l0,0l0,0c-0.3,0.3-0.5,0.8-0.5,1.3l0,0l0,0c0,0.5,0.2,1,0.5,1.3l0,0l0,0
		C18.7-44.5,19.1-44.4,19.6-44.4z M28.5-45.2L28.5-45.2v-4.4h1.9v6.8h-1.9v-0.6l0,0c-0.5,0.4-1,0.6-1.6,0.6l0,0l0,0
		c-0.9,0-1.5-0.3-2-0.8l0,0l0,0c-0.5-0.5-0.7-1.1-0.7-1.8l0,0v-4.2h1.9v3.8l0,0c0,0.5,0.1,0.8,0.3,1.1l0,0l0,0
		c0.2,0.3,0.6,0.4,1,0.4l0,0l0,0C27.9-44.4,28.2-44.7,28.5-45.2z M34-39.9l-1.9,0v-9.5l1.9-0.2v0.5l0,0c0.5-0.4,1-0.5,1.5-0.5l0,0
		l0,0c1,0,1.9,0.3,2.5,1l0,0l0,0c0.6,0.7,0.9,1.5,0.9,2.4l0,0l0,0c0,0.9-0.3,1.7-0.9,2.4l0,0l0,0c-0.6,0.7-1.4,1-2.5,1l0,0l0,0
		c-0.7,0-1.2-0.2-1.5-0.6l0,0V-39.9z M34-46.8L34-46.8v1.1l0,0c0.1,0.8,0.6,1.2,1.4,1.4l0,0l0,0c1.1-0.1,1.7-0.7,1.8-1.7l0,0l0,0
		c0-1.3-0.7-1.9-1.8-2l0,0l0,0C34.5-47.9,34.1-47.5,34-46.8z M43.3-42.7L43.3-42.7c-1,0-1.8-0.3-2.5-1l0,0l0,0c-0.7-0.7-1-1.5-1-2.5
		l0,0l0,0c0-1,0.3-1.8,1-2.5l0,0l0,0c0.7-0.7,1.5-1,2.5-1l0,0l0,0c1,0,1.8,0.3,2.5,1l0,0l0,0c0.7,0.7,1,1.5,1,2.5l0,0l0,0
		c0,1-0.3,1.8-1,2.5l0,0l0,0C45.2-43,44.3-42.7,43.3-42.7L43.3-42.7z M43.3-44.4L43.3-44.4L43.3-44.4c0.5,0,0.9-0.2,1.3-0.5l0,0l0,0
		c0.3-0.3,0.5-0.8,0.5-1.3l0,0l0,0c0-0.5-0.2-1-0.5-1.3l0,0l0,0c-0.3-0.4-0.7-0.5-1.3-0.5l0,0l0,0c-0.5,0-0.9,0.2-1.3,0.5l0,0l0,0
		c-0.3,0.3-0.5,0.8-0.5,1.3l0,0l0,0c0,0.5,0.2,1,0.5,1.3l0,0l0,0C42.4-44.5,42.8-44.4,43.3-44.4z M50-47.2L50-47.2v4.4h-1.9v-6.6
		l1.9-0.2v0.6l0,0c0.4-0.4,1-0.6,1.6-0.6l0,0l0,0c0.9,0,1.5,0.3,2,0.8l0,0l0,0c0.5-0.5,1.3-0.8,2.3-0.8l0,0l0,0c0.9,0,1.5,0.3,2,0.8
		l0,0l0,0c0.5,0.5,0.7,1.1,0.7,1.8l0,0v4.2h-1.9v-3.8l0,0c0-0.5-0.1-0.8-0.3-1.1l0,0l0,0c-0.2-0.2-0.5-0.4-1-0.4l0,0l0,0
		c-0.4,0-0.7,0.3-1,0.8l0,0l0,0c0,0.1,0,0.3,0,0.4l0,0v4h-1.9v-3.8l0,0c0-0.5-0.1-0.8-0.3-1.1l0,0l0,0c-0.2-0.2-0.5-0.4-1-0.4l0,0
		l0,0C50.7-48,50.3-47.7,50-47.2z M61.1-47.6l-0.8-1.2l0,0c0.9-0.5,1.9-0.8,3-0.8l0,0l0,0c0.8,0,1.5,0.2,1.9,0.7l0,0l0,0
		c0.5,0.5,0.7,1.1,0.7,2l0,0v4.1h-1.9v-0.5l0,0c-0.6,0.4-1.1,0.5-1.5,0.5l0,0l0,0c-0.9,0-1.6-0.2-2-0.6l0,0l0,0
		c-0.5-0.4-0.7-0.9-0.7-1.6l0,0l0,0c0-0.6,0.2-1.2,0.7-1.7l0,0l0,0c0.4-0.5,1.1-0.8,2.1-0.8l0,0l0,0c0.4,0,1,0.1,1.5,0.4l0,0v-0.2
		l0,0c0-0.5-0.4-0.8-1.1-0.8l0,0l0,0C62.2-48,61.6-47.9,61.1-47.6L61.1-47.6z M64.2-44.8L64.2-44.8v-0.8l0,0
		c-0.2-0.4-0.6-0.5-1.3-0.5l0,0l0,0c-0.8,0.1-1.3,0.4-1.3,1l0,0l0,0c0,0.5,0.5,0.8,1.3,0.9l0,0l0,0C63.5-44.3,64-44.5,64.2-44.8z
		 M69.7-47.1L69.7-47.1v4.3h-1.9v-6.6l1.9-0.2v0.6l0,0c0.5-0.4,1-0.6,1.6-0.6l0,0l0,0c0.9,0,1.5,0.3,2,0.8l0,0l0,0
		c0.5,0.5,0.7,1.1,0.7,1.8l0,0v4.2h-1.9v-3.8l0,0c0-0.5-0.1-0.8-0.3-1.1l0,0l0,0c-0.2-0.2-0.6-0.4-1-0.4l0,0l0,0
		C70.3-48,70-47.7,69.7-47.1z M77.5-42.8h-1.9v-6.8h1.9V-42.8z M75.5-51.3L75.5-51.3L75.5-51.3c0,0.3,0.1,0.5,0.3,0.7l0,0l0,0
		c0.2,0.2,0.4,0.3,0.8,0.3l0,0l0,0c0.3,0,0.6-0.1,0.8-0.3l0,0l0,0c0.2-0.2,0.3-0.4,0.3-0.7l0,0l0,0c0-0.3-0.1-0.5-0.3-0.7l0,0l0,0
		c-0.2-0.2-0.4-0.3-0.8-0.3l0,0l0,0c-0.3,0-0.6,0.1-0.7,0.3l0,0l0,0C75.6-51.8,75.5-51.5,75.5-51.3z M80.1-47.6l-0.8-1.2l0,0
		c0.9-0.5,1.9-0.8,3-0.8l0,0l0,0c0.8,0,1.5,0.2,1.9,0.7l0,0l0,0c0.5,0.5,0.7,1.1,0.7,2l0,0v4.1h-1.9v-0.5l0,0
		c-0.6,0.4-1.1,0.5-1.5,0.5l0,0l0,0c-0.9,0-1.6-0.2-2.1-0.6l0,0l0,0c-0.5-0.4-0.7-0.9-0.7-1.6l0,0l0,0c0-0.6,0.2-1.2,0.7-1.7l0,0
		l0,0c0.4-0.5,1.1-0.8,2.1-0.8l0,0l0,0c0.4,0,0.9,0.1,1.5,0.4l0,0v-0.2l0,0c0-0.5-0.4-0.8-1.1-0.8l0,0l0,0
		C81.2-48,80.5-47.9,80.1-47.6L80.1-47.6z M83.1-44.8L83.1-44.8v-0.8l0,0c-0.2-0.4-0.6-0.5-1.3-0.5l0,0l0,0c-0.8,0.1-1.3,0.4-1.3,1
		l0,0l0,0c0,0.5,0.5,0.8,1.3,0.9l0,0l0,0C82.5-44.3,82.9-44.5,83.1-44.8z"/>
</g>
<g id="_x39_269873b-566f-aa23-fe77-697bbc54db67" transform="matrix(0.17276311525438642,0,0,0.17276311525438642,35.75002377601375,124.08554457454373)">
	<g>
		<path class="st2" d="M150-430.8c33.6,0,65.1-12.9,88.8-36.6c23.7-23.7,36.6-55.2,36.6-88.8c0-33.6-12.9-65.1-36.6-88.8
			s-55.2-36.6-88.8-36.6S84.9-668.7,61.2-645c-23.7,23.7-36.6,55.2-36.6,88.8c0,33.6,12.9,65.1,36.6,88.8
			C84.9-443.7,116.4-430.8,150-430.8z M157.2-452.1c-2.4,0.3-4.8,0.3-7.2,0.3c-3.3,0-6.6-0.3-9.9-0.6
			c-10.8-16.8-18.9-34.8-23.7-53.7h53.1c1.8,4.5,5.1,8.7,9,11.4C173.4-479.7,166.2-465.6,157.2-452.1z M185.7-458.1
			c5.7-10.5,10.2-21,13.8-32.1c8.7-1.8,15.6-7.8,18.9-15.9h23.1C229.5-484.2,209.4-467.1,185.7-458.1z M254.1-556.2
			c0,9.9-1.5,19.5-3.9,28.8h-32.4c-1.8-3.9-4.8-7.5-8.4-10.2c0.6-6.6,0.9-13.2,0.9-19.8c0-9.3-0.6-18.6-1.8-27.6h41.4
			C252.9-576,254.1-566.1,254.1-556.2z M241.5-606.3h-36.6c-3.9-16.5-9.6-32.1-17.4-47.1C210.3-644.7,229.5-627.6,241.5-606.3z
			 M189.3-557.4c0,5.1-0.3,10.2-0.6,15.3c-8.4,1.8-15.3,7.2-18.6,14.7h-57.9c-1.2-9-2.1-18.3-2.1-27.3c0-5.7,0.3-11.4,0.9-17.1
			c7.8-1.5,14.1-6.6,18-13.2h58.5C188.7-576,189.3-566.7,189.3-557.4z M142.2-660c2.7-0.3,5.4-0.3,7.8-0.3c3,0,6,0,9,0.3
			c10.8,16.8,18.9,34.8,23.7,53.7h-52.2c-1.8-5.1-5.1-9.6-9.3-12.9C126.6-633.6,133.5-647.1,142.2-660z M113.7-654
			c-5.1,9.6-9.6,19.8-13.2,30c-9.3,1.8-16.8,8.7-19.8,17.4H58.8C70.5-627.9,90-645,113.7-654z M45.9-556.2c0-9.9,1.5-19.8,4.2-28.8
			h32.7c1.8,3.3,4.5,6.3,7.5,8.7c-0.6,7.2-1.2,14.4-1.2,21.6c0,9.3,0.6,18.3,1.8,27.3H50.1C47.1-536.7,45.9-546.3,45.9-556.2z
			 M94.5-506.4c3.9,16.2,9.6,32.1,17.4,47.1c-22.8-9-41.7-25.8-53.4-47.1H94.5z"/>
	</g>
</g>
</svg>
